<?xml version="1.0" encoding="UTF-8"?>
<svg id="Layer_2" data-name="Layer 2" xmlns="http://www.w3.org/2000/svg" viewBox="0 0 255.86 253.96">
  <defs>
    <style>
      .cls-1 {
        fill: #f2f0f0;
      }
    </style>
  </defs>
  <g id="Layer_1-2" data-name="Layer 1">
    <g>
      <path class="cls-1" d="M255.86,128.66c-28.63,28.44-97.6,96.87-126.23,125.3-25.45-25.26-56.23-55.8-81.65-81.04,9.08-9.01,28.3-28.1,37.25-36.98l21.75,21.59-15.57,15.46c8.58,8.52,28.53,28.31,37.3,37.02l83.06-82.44c-.42-.42-22.83-22.66-23.25-23.08l21.49-21.33c12.37,12.27,33.52,33.29,45.85,45.5Z"/>
      <path class="cls-1" d="M195.96,69.21c-14.23,14.12-63.93,63.46-78.99,78.41l-21.75-21.59,57.49-57.08c-5.75-5.71-20.99-20.83-26.93-26.73-18.13,18-65.67,65.17-83.06,82.44l17.82,17.69-21.68,21.52c-9.56-9.49-29.23-29.02-38.86-38.58C37.35,88.22,88.7,37.23,126.23,0c21.55,21.39,48.18,47.82,69.73,69.21Z"/>
    </g>
  </g>
</svg>